<?xml version="1.0" encoding="iso-8859-1"?>
<!-- Uploaded to: SVG Repo, www.svgrepo.com, Generator: SVG Repo Mixer Tools -->
<!DOCTYPE svg PUBLIC "-//W3C//DTD SVG 1.1//EN" "http://www.w3.org/Graphics/SVG/1.1/DTD/svg11.dtd">
<svg fill="#000000" height="800px" width="800px" version="1.1" id="Capa_1" xmlns="http://www.w3.org/2000/svg" xmlns:xlink="http://www.w3.org/1999/xlink" 
	 viewBox="0 0 366.496 366.496" xml:space="preserve">
<g>
	<path d="M137.925,97.531c-33.618,0-60.968,27.35-60.968,60.967s27.35,60.969,60.968,60.969s60.968-27.352,60.968-60.969
		S171.543,97.531,137.925,97.531z M137.925,188.98c-16.836,0-30.483-13.646-30.483-30.482c0-13.314,8.542-24.631,20.442-28.783
		l5.815-12.197c0.777-1.629,2.421-2.666,4.226-2.666c1.805,0,3.449,1.037,4.226,2.666l5.815,12.199
		c11.901,4.152,20.442,15.467,20.442,28.781C168.408,175.334,154.761,188.98,137.925,188.98z"/>
	<path d="M332.769,0H33.727C15.929,0,1.498,14.432,1.498,32.229V301.27c0,17.797,14.431,32.229,32.229,32.229h7.028v25.809
		c0,3.971,3.219,7.189,7.189,7.189h51.617c3.971,0,7.189-3.219,7.189-7.189v-25.809h152.994v25.809c0,3.971,3.219,7.189,7.189,7.189
		h51.617c3.971,0,7.189-3.219,7.189-7.189v-25.809h7.028c17.798,0,32.229-14.432,32.229-32.229V32.229
		C364.998,14.432,350.567,0,332.769,0z M137.925,248.498c-49.626,0-90-40.373-90-90c0-49.625,40.374-90,90-90s90,40.375,90,90
		C227.925,208.125,187.551,248.498,137.925,248.498z M307.315,157.22v40.658c0,9.499-7.728,17.227-17.227,17.227
		c-9.499,0-17.227-7.728-17.227-17.227V157.22c-7.722-5.427-12.773-14.398-12.773-24.553c0-16.569,13.431-30,30-30
		c16.567,0,30,13.431,30,30C320.088,142.822,315.036,151.793,307.315,157.22z"/>
</g>
</svg>