<?xml version="1.0" encoding="utf-8"?><!-- Uploaded to: SVG Repo, www.svgrepo.com, Generator: SVG Repo Mixer Tools -->
<svg version="1.1" id="Uploaded to svgrepo.com" xmlns="http://www.w3.org/2000/svg" xmlns:xlink="http://www.w3.org/1999/xlink" 
	 width="800px" height="800px" viewBox="0 0 32 32" xml:space="preserve">
<style type="text/css">
	.stone_een{fill:#0B1719;}
	.st0{fill:#0B1719;}
</style>
<path class="stone_een" d="M18.314,25l-5.849,5.849c-0.391,0.391-0.902,0.586-1.414,0.586s-1.024-0.195-1.414-0.586L3.787,25H18.314
	z M28.213,7l-5.849-5.849c-0.391-0.391-0.902-0.586-1.414-0.586s-1.024,0.195-1.414,0.586L13.686,7H28.213z M16,11
	c-2.949,0-4,2.583-4,5c0,2.417,1.051,5,4,5s4-2.583,4-5C20,13.583,18.949,11,16,11z M31,22c0,1.105-0.895,2-2,2
	c0,0-26.158-0.015-26.237-0.024c-0.923-0.11-1.647-0.844-1.742-1.771C1.014,22.136,1,10,1,10c0-1.105,0.895-2,2-2
	c0,0,26.158,0.015,26.237,0.024c0.923,0.11,1.647,0.844,1.742,1.771C30.986,9.864,31,22,31,22z M5,21c0-0.552-0.448-1-1-1
	s-1,0.448-1,1c0,0.552,0.448,1,1,1S5,21.552,5,21z M5,11c0-0.552-0.448-1-1-1s-1,0.448-1,1c0,0.552,0.448,1,1,1S5,11.552,5,11z
	 M21,16c0-3.314-1.686-6-5-6s-5,2.686-5,6s1.686,6,5,6S21,19.314,21,16z M29,21c0-0.552-0.448-1-1-1s-1,0.448-1,1
	c0,0.552,0.448,1,1,1S29,21.552,29,21z M29,11c0-0.552-0.448-1-1-1s-1,0.448-1,1c0,0.552,0.448,1,1,1S29,11.552,29,11z"/>
</svg>